<svg xmlns="http://www.w3.org/2000/svg" xlink="http://www.w3.org/1999/xlink" version="1.1" id="svg-7d03" x="0px" y="0px" viewBox="0 0 480.028 480.028" style="enable-background:new 0 0 480.028 480.028;" space="preserve" class="u-svg-content"><g><g><path d="M471.489,469.11l-56-144c-1.603-4.117-6.24-6.156-10.357-4.553c-1.631,0.635-3.01,1.788-3.923,3.281l-29.008,47.464    L255.114,148.286c-1.375-2.714-4.199-4.384-7.24-4.28c-3.03,0.062-5.765,1.83-7.064,4.568l-85.424,179.84l-27.848-75.2    c-1.116-3.008-3.923-5.059-7.128-5.208c-3.199-0.124-6.171,1.648-7.584,4.52l-104,216c-1.922,3.978-0.255,8.762,3.723,10.683    c1.087,0.525,2.278,0.797,3.485,0.797h448c2.641-0.002,5.111-1.307,6.6-3.488C472.123,474.34,472.443,471.569,471.489,469.11z     M406.434,345.966l19.552,50.28l-16-4c-1.853-0.465-3.811-0.253-5.52,0.6l-10.848,5.424l-11.888-11.864L406.434,345.966z     M248.418,169.894l61.768,117.656l-23.28,29.088l-41.752-34.776c-3.178-2.648-7.85-2.436-10.776,0.488l-34.344,34.344    l-14.488-14.488L248.418,169.894z M119.073,276.446l26.728,72.144l-8,16.896l-15.2-5.072c-2.875-0.956-6.043-0.207-8.184,1.936    l-17.48,17.48l-16.8-22.4L119.073,276.446z M28.762,464.006l43.504-90.352l17.368,23.152c1.387,1.863,3.516,3.03,5.832,3.2h0.568    c2.122,0,4.156-0.844,5.656-2.344l20.504-20.504l8.664,2.888l-39.88,83.96H28.762z M108.689,464.006l53.008-111.592l16.56-34.864    l13.44,13.44l-7.44,74.4l-36.656,58.616H108.689z M166.434,464.006l32.384-51.76c0.665-1.038,1.081-2.215,1.216-3.44l7.72-77.168    l32.8-32.8l40,33.304l7.608,60.864c0.257,2.067,1.31,3.953,2.936,5.256l37.6,30.088l5.896,35.656H166.434z M350.801,464.006    l-6.888-41.32c-0.323-1.942-1.352-3.697-2.888-4.928l-37.464-29.968l-7.2-57.424l21.88-27.36l46.344,88.2l38.216,72.8H350.801z     M420.833,464.006l-19.36-36.944l-6.24-11.816c0.112-0.056,0.24,0,0.344-0.08l13.352-6.68l24.128,6.032l19.28,49.488H420.833z"></path>
                    </g>
                    </g><g><g><path d="M469.121,172.15c-8.351-9.218-20.82-13.55-33.088-11.496c-32.901-35.314-88.2-37.27-123.514-4.369    c-0.773,0.72-1.532,1.454-2.278,2.201l-11.864,11.864c-3.178,3.07-3.266,8.134-0.196,11.312c3.07,3.178,8.134,3.266,11.312,0.196    c0.067-0.064,0.132-0.13,0.196-0.196l11.864-11.864c26.986-27.011,70.429-28.067,98.696-2.4c-0.44,0.328-0.92,0.552-1.352,0.904    l-12.88,10.496c-3.426,2.79-3.942,7.83-1.152,11.256c2.79,3.426,7.83,3.942,11.256,1.152l12.888-10.504    c8.479-7.105,21.088-6.101,28.336,2.256c4.703,5.248,7.099,12.167,6.648,19.2c-0.309,6.871-3.364,13.33-8.48,17.928l-7.728,6.712    c-3.734,3.304-8.535,5.148-13.52,5.192h-82.232c-4.418,0-8,3.582-8,8s3.582,8,8,8h82.232c8.836-0.052,17.357-3.287,24-9.112    l7.728-6.712c8.372-7.44,13.403-17.933,13.96-29.12C480.625,191.712,476.723,180.583,469.121,172.15z"></path>
                    </g>
                    </g><g><g><path d="M136.097,0.022C96.235,0.012,61.349,26.809,51.081,65.326c-34.617,7.142-56.89,40.994-49.749,75.611    c6.136,29.743,32.331,51.079,62.701,51.069c4.418,0,8-3.582,8-8s-3.582-8-8-8c-26.51-0.04-47.967-21.563-47.927-48.072    c0.037-24.595,18.659-45.183,43.127-47.68c26.347-2.677,49.877,16.511,52.554,42.858c0.165,1.626,0.247,3.259,0.246,4.894    c0,4.418,3.582,8,8,8s8-3.582,8-8c-0.04-33.721-26.237-61.625-59.888-63.792c13.245-37.494,54.378-57.151,91.871-43.905    c28.71,10.142,47.936,37.248,48.017,67.697c0,4.418,3.582,8,8,8s8-3.582,8-8C224.046,39.427,184.676,0.035,136.097,0.022z"></path>
                    </g>
                    </g><g><g><path d="M120.033,176.006h-24c-4.418,0-8,3.582-8,8s3.582,8,8,8h24c4.418,0,8-3.582,8-8S124.452,176.006,120.033,176.006z"></path>
                    </g>
                    </g><g></g><g></g><g></g><g></g><g></g><g></g><g></g><g></g><g></g><g></g><g></g><g></g><g></g><g></g><g></g></svg>